<svg width="81" height="81" viewBox="0 0 81 81" fill="none" xmlns="http://www.w3.org/2000/svg">
<g clip-path="url(#clip0_2330_920)">
<path d="M72.2202 9.17794C72.0567 9.1713 71.8931 9.17019 71.7294 9.1748H65.5607V3.87354C65.5609 1.75304 63.5367 0.5 61.4162 0.5H55.7295C53.609 0.5 52.0669 1.75304 52.0669 3.87354V9.17462H28.9343V3.87354C28.9343 1.75304 27.3922 0.5 25.2717 0.5H19.5849C17.4646 0.5 15.4404 1.75304 15.4404 3.87354V9.17462H9.27182C5.33412 9.06485 2.053 12.1681 1.94323 16.1056C1.93862 16.2691 1.93973 16.4329 1.94637 16.5964V72.3071C1.94637 76.5481 5.03063 80.4998 9.27164 80.4998H71.7296C75.9706 80.4998 79.0549 76.5481 79.0549 72.3071V16.5964C79.2161 12.6605 76.156 9.33918 72.2202 9.17794ZM55.7295 4.35543H61.7055V14.9578H55.7295V4.35543ZM19.5851 4.35543H25.0791V14.9578H19.5851V4.35543ZM75.1995 72.3071C75.1995 74.4276 73.8501 76.6444 71.7296 76.6444H9.27182C7.15132 76.6444 5.80198 74.4276 5.80198 72.3071V31.3434H75.1995V72.3071ZM75.1995 16.5964V27.488H5.80179V16.5964C5.63852 14.7939 6.96739 13.2003 8.76983 13.0371C8.93661 13.0219 9.10449 13.0197 9.27164 13.0302H15.4404V15.1507C15.4404 17.2712 17.4644 18.8134 19.5849 18.8134H25.2717C27.2406 18.8674 28.8803 17.315 28.9343 15.3461C28.9362 15.281 28.9362 15.2159 28.9343 15.1507V13.03H52.0669V15.1505C52.0129 17.1194 53.5653 18.7591 55.5342 18.8132C55.5993 18.815 55.6644 18.815 55.7295 18.8132H61.4164C63.5369 18.8132 65.5609 17.271 65.5609 15.1505V13.03H71.7296C73.5359 12.9162 75.0925 14.2883 75.2063 16.0946C75.2168 16.2617 75.2146 16.4296 75.1995 16.5964Z" fill="white"/>
<path d="M29.8023 57.6569L28.0674 67.2955C27.9987 67.7089 28.0666 68.1336 28.2609 68.505C28.7544 69.4483 29.9193 69.813 30.8625 69.3195L39.5372 64.7894L48.2118 69.3195L49.0792 69.5123C49.4975 69.5197 49.9057 69.3835 50.2358 69.1267C50.8119 68.7059 51.1084 68.0015 51.0069 67.2953L49.272 57.6567L56.3082 50.9098C56.8117 50.3658 56.9943 49.5983 56.7901 48.8858C56.5305 48.2272 55.9457 47.7522 55.2479 47.6328L45.6094 46.187L41.2721 37.4159C41.083 37.0255 40.7679 36.7102 40.3775 36.5213C39.4193 36.0573 38.2664 36.4578 37.8022 37.4159L33.4649 46.187L23.8264 47.6328C23.1286 47.752 22.5438 48.2272 22.2842 48.8858C22.08 49.5983 22.2628 50.3658 22.7661 50.9098L29.8023 57.6569ZM35.1035 49.8498C35.7089 49.7592 36.2217 49.3563 36.4529 48.7895L39.5372 42.6208L42.6214 48.7895C42.8528 49.3563 43.3655 49.7592 43.9708 49.8498L50.8141 50.8135L45.8985 55.5364C45.4406 55.9897 45.2258 56.6339 45.3201 57.2713L46.4767 64.1147L40.4044 60.8377L39.537 60.6449L38.6695 60.8377L32.5973 64.1147L33.7538 57.2713C33.8483 56.6339 33.6334 55.9897 33.1755 55.5364L28.2598 50.8135L35.1035 49.8498Z" fill="white"/>
</g>
<defs>
<clipPath id="clip0_2330_920">
<rect width="80" height="80" fill="white" transform="translate(0.5 0.5)"/>
</clipPath>
</defs>
</svg>
